<svg xmlns="http://www.w3.org/2000/svg" xmlns:xlink="http://www.w3.org/1999/xlink" version="1.1" data-diagram-type="DESCRIPTION" style="width:864px;height:1645px;background:#FFFFFF;" width="864px" height="1645px" viewBox="0 0 864 1645" zoomAndPan="magnify" preserveAspectRatio="none" contentStyleType="text/css"><?plantuml 1.2026.7beta3?><defs/><g><!--cluster SGDU - Sistema de Gerenciamento Desportivo Universitário--><g class="cluster" data-qualified-name="SGDU - Sistema de Gerenciamento Desportivo Universit.rio" id="ent0006" data-source-line="10"><rect x="160.9" y="7" width="689.2" height="1339" fill="none" style="stroke:#181818;stroke-width:1;" rx="2.5" ry="2.5"/><text x="269.8447" y="21.9951" fill="#000000" font-size="14" lengthAdjust="spacing" textLength="471.3105" font-weight="700" font-family="sans-serif">SGDU - Sistema de Gerenciamento Desportivo Universitário</text></g><!--entity UC01--><g class="entity" data-qualified-name="SGDU - Sistema de Gerenciamento Desportivo Universit.rio.UC01" id="ent0007" data-source-line="11"><ellipse cx="314.0521" cy="733.9964" rx="102.8321" ry="22.9664" fill="#F1F1F1" style="stroke:#181818;stroke-width:0.5;"/><text x="222.912" y="738.6449" fill="#000000" font-size="14" lengthAdjust="spacing" textLength="182.2803" font-family="sans-serif">UC01 - Autenticar Usuário</text></g><!--entity UC02--><g class="entity" data-qualified-name="SGDU - Sistema de Gerenciamento Desportivo Universit.rio.UC02" id="ent0008" data-source-line="12"><ellipse cx="314.0499" cy="1136.004" rx="96.6699" ry="21.734" fill="#F1F1F1" style="stroke:#181818;stroke-width:0.5;"/><text x="229.7046" y="1140.6524" fill="#000000" font-size="14" lengthAdjust="spacing" textLength="168.6904" font-family="sans-serif">UC02 - Gerenciar Senha</text></g><!--entity UC03--><g class="entity" data-qualified-name="SGDU - Sistema de Gerenciamento Desportivo Universit.rio.UC03" id="ent0009" data-source-line="13"><ellipse cx="314.0531" cy="1215.0046" rx="100.9231" ry="22.5846" fill="#F1F1F1" style="stroke:#181818;stroke-width:0.5;"/><text x="225.0081" y="1219.653" fill="#000000" font-size="14" lengthAdjust="spacing" textLength="178.0898" font-family="sans-serif">UC03 - Gerenciar Atlética</text></g><!--entity UC04--><g class="entity" data-qualified-name="SGDU - Sistema de Gerenciamento Desportivo Universit.rio.UC04" id="ent0010" data-source-line="14"><ellipse cx="314.0462" cy="813.9972" rx="95.6862" ry="21.5372" fill="#F1F1F1" style="stroke:#181818;stroke-width:0.5;"/><text x="230.7947" y="818.6457" fill="#000000" font-size="14" lengthAdjust="spacing" textLength="166.5029" font-family="sans-serif">UC04 - Gerenciar Atleta</text></g><!--entity UC05--><g class="entity" data-qualified-name="SGDU - Sistema de Gerenciamento Desportivo Universit.rio.UC05" id="ent0011" data-source-line="15"><ellipse cx="314.05" cy="973.996" rx="92.58" ry="20.916" fill="#F1F1F1" style="stroke:#181818;stroke-width:0.5;"/><text x="234.2712" y="978.6444" fill="#000000" font-size="14" lengthAdjust="spacing" textLength="159.5576" font-family="sans-serif">UC05 - Gerenciar Time</text></g><!--entity UC06--><g class="entity" data-qualified-name="SGDU - Sistema de Gerenciamento Desportivo Universit.rio.UC06" id="ent0012" data-source-line="16"><ellipse cx="314.0524" cy="236.0005" rx="95.6524" ry="21.5305" fill="#F1F1F1" style="stroke:#181818;stroke-width:0.5;"/><text x="230.8386" y="240.6489" fill="#000000" font-size="14" lengthAdjust="spacing" textLength="166.4277" font-family="sans-serif">UC06 - Gerenciar Cargo</text></g><!--entity UC07--><g class="entity" data-qualified-name="SGDU - Sistema de Gerenciamento Desportivo Universit.rio.UC07" id="ent0013" data-source-line="17"><ellipse cx="314.0545" cy="1054.9969" rx="111.0345" ry="24.6069" fill="#F1F1F1" style="stroke:#181818;stroke-width:0.5;"/><text x="213.9969" y="1059.6453" fill="#000000" font-size="14" lengthAdjust="spacing" textLength="200.1152" font-family="sans-serif">UC07 - Visualizar Dashboard</text></g><!--entity UC08--><g class="entity" data-qualified-name="SGDU - Sistema de Gerenciamento Desportivo Universit.rio.UC08" id="ent0014" data-source-line="18"><ellipse cx="314.0485" cy="574.0017" rx="114.9585" ry="25.3917" fill="#F1F1F1" style="stroke:#181818;stroke-width:0.5;"/><text x="209.7663" y="578.6501" fill="#000000" font-size="14" lengthAdjust="spacing" textLength="208.5645" font-family="sans-serif">UC08 - Gerenciar Competição</text></g><!--entity UC09--><g class="entity" data-qualified-name="SGDU - Sistema de Gerenciamento Desportivo Universit.rio.UC09" id="ent0015" data-source-line="19"><ellipse cx="314.0466" cy="654.9953" rx="90.9766" ry="20.5953" fill="#F1F1F1" style="stroke:#181818;stroke-width:0.5;"/><text x="236.0725" y="659.6438" fill="#000000" font-size="14" lengthAdjust="spacing" textLength="155.9482" font-family="sans-serif">UC09 - Inscrever Time</text></g><!--entity UC10--><g class="entity" data-qualified-name="SGDU - Sistema de Gerenciamento Desportivo Universit.rio.UC10" id="ent0016" data-source-line="20"><ellipse cx="314.051" cy="491.0002" rx="98.601" ry="22.1202" fill="#F1F1F1" style="stroke:#181818;stroke-width:0.5;"/><text x="227.5662" y="495.6486" fill="#000000" font-size="14" lengthAdjust="spacing" textLength="172.9697" font-family="sans-serif">UC10 - Registrar Súmula</text></g><!--entity UC11--><g class="entity" data-qualified-name="SGDU - Sistema de Gerenciamento Desportivo Universit.rio.UC11" id="ent0017" data-source-line="21"><ellipse cx="314.0524" cy="1300.9985" rx="132.0424" ry="28.8085" fill="#F1F1F1" style="stroke:#181818;stroke-width:0.5;"/><text x="191.6105" y="1305.6469" fill="#000000" font-size="14" lengthAdjust="spacing" textLength="244.8838" font-family="sans-serif">UC11 - Consultar Tabela e Ranking</text></g><!--entity UC12--><g class="entity" data-qualified-name="SGDU - Sistema de Gerenciamento Desportivo Universit.rio.UC12" id="ent0018" data-source-line="22"><ellipse cx="314.0522" cy="71.0044" rx="130.8722" ry="28.5744" fill="#F1F1F1" style="stroke:#181818;stroke-width:0.5;"/><text x="192.8442" y="75.6529" fill="#000000" font-size="14" lengthAdjust="spacing" textLength="242.416" font-family="sans-serif">UC12 - Gerenciar Edição dos Jogos</text></g><!--entity UC13--><g class="entity" data-qualified-name="SGDU - Sistema de Gerenciamento Desportivo Universit.rio.UC13" id="ent0019" data-source-line="23"><ellipse cx="314.0505" cy="315.9961" rx="105.0305" ry="23.4061" fill="#F1F1F1" style="stroke:#181818;stroke-width:0.5;"/><text x="220.5075" y="320.6445" fill="#000000" font-size="14" lengthAdjust="spacing" textLength="187.0859" font-family="sans-serif">UC13 - Agendar Instalação</text></g><!--entity UC14--><g class="entity" data-qualified-name="SGDU - Sistema de Gerenciamento Desportivo Universit.rio.UC14" id="ent0020" data-source-line="24"><ellipse cx="314.0514" cy="404.0003" rx="137.1514" ry="29.8303" fill="#F1F1F1" style="stroke:#181818;stroke-width:0.5;"/><text x="186.2364" y="408.6487" fill="#000000" font-size="14" lengthAdjust="spacing" textLength="255.6299" font-family="sans-serif">UC14 - Gerar Relatório e Exportação</text></g><!--entity UC15--><g class="entity" data-qualified-name="SGDU - Sistema de Gerenciamento Desportivo Universit.rio.UC15" id="ent0021" data-source-line="25"><ellipse cx="314.0546" cy="156.9969" rx="98.9846" ry="22.1969" fill="#F1F1F1" style="stroke:#181818;stroke-width:0.5;"/><text x="227.1459" y="161.6454" fill="#000000" font-size="14" lengthAdjust="spacing" textLength="173.8174" font-family="sans-serif">UC15 - Emitir Certificado</text></g><!--entity UC16--><g class="entity" data-qualified-name="SGDU - Sistema de Gerenciamento Desportivo Universit.rio.UC16" id="ent0022" data-source-line="26"><ellipse cx="314.0479" cy="894.0036" rx="107.5179" ry="23.9036" fill="#F1F1F1" style="stroke:#181818;stroke-width:0.5;"/><text x="217.7979" y="898.652" fill="#000000" font-size="14" lengthAdjust="spacing" textLength="192.5" font-family="sans-serif">UC16 - Receber Notificação</text></g><!--entity UC17--><g class="entity" data-qualified-name="SGDU - Sistema de Gerenciamento Desportivo Universit.rio.UC17" id="ent0023" data-source-line="27"><ellipse cx="705.1494" cy="1178.9999" rx="128.9494" ry="28.1899" fill="#F1F1F1" style="stroke:#181818;stroke-width:0.5;"/><text x="585.9717" y="1183.6483" fill="#000000" font-size="14" lengthAdjust="spacing" textLength="238.3555" font-family="sans-serif">UC17 - Validar Vínculo Acadêmico</text></g><!--entity Admin--><g class="entity" data-qualified-name="Admin" id="ent0001" data-source-line="4"><ellipse cx="59.95" cy="498.35" rx="8" ry="8" fill="#F1F1F1" style="stroke:#181818;stroke-width:0.5;"/><path d="M59.95,506.35 L59.95,533.35 M46.95,514.35 L72.95,514.35 M59.95,533.35 L46.95,548.35 M59.95,533.35 L72.95,548.35" style="stroke:#181818;stroke-width:0.5;" fill="none"/><text x="10.41" y="562.8451" fill="#000000" font-size="14" lengthAdjust="spacing" textLength="99.0801" font-family="sans-serif">Administrador</text></g><!--entity Mod--><g class="entity" data-qualified-name="Mod" id="ent0002" data-source-line="5"><ellipse cx="59.9538" cy="785.35" rx="8" ry="8" fill="#F1F1F1" style="stroke:#181818;stroke-width:0.5;"/><path d="M59.9538,793.35 L59.9538,820.35 M46.9538,801.35 L72.9538,801.35 M59.9538,820.35 L46.9538,835.35 M59.9538,820.35 L72.9538,835.35" style="stroke:#181818;stroke-width:0.5;" fill="none"/><text x="22.11" y="849.8451" fill="#000000" font-size="14" lengthAdjust="spacing" textLength="75.6875" font-family="sans-serif">Moderador</text></g><!--entity Cap--><g class="entity" data-qualified-name="Cap" id="ent0003" data-source-line="6"><ellipse cx="59.9523" cy="1134.35" rx="8" ry="8" fill="#F1F1F1" style="stroke:#181818;stroke-width:0.5;"/><path d="M59.9523,1142.35 L59.9523,1169.35 M46.9523,1150.35 L72.9523,1150.35 M59.9523,1169.35 L46.9523,1184.35 M59.9523,1169.35 L72.9523,1184.35" style="stroke:#181818;stroke-width:0.5;" fill="none"/><text x="33.07" y="1198.8451" fill="#000000" font-size="14" lengthAdjust="spacing" textLength="53.7646" font-family="sans-serif">Capitão</text></g><!--entity Pub--><g class="entity" data-qualified-name="Pub" id="ent0004" data-source-line="7"><ellipse cx="59.9492" cy="1564.35" rx="8" ry="8" fill="#F1F1F1" style="stroke:#181818;stroke-width:0.5;"/><path d="M59.9492,1572.35 L59.9492,1599.35 M46.9492,1580.35 L72.9492,1580.35 M59.9492,1599.35 L46.9492,1614.35 M59.9492,1599.35 L72.9492,1614.35" style="stroke:#181818;stroke-width:0.5;" fill="none"/><text x="6" y="1628.8451" fill="#000000" font-size="14" lengthAdjust="spacing" textLength="107.8984" font-family="sans-serif">Usuário Público</text></g><!--entity Suap--><g class="entity" data-qualified-name="Suap" id="ent0005" data-source-line="8"><ellipse cx="314.0503" cy="1389.4969" rx="8" ry="8" fill="#F1F1F1" style="stroke:#181818;stroke-width:0.5;"/><path d="M314.0503,1397.4969 L314.0503,1424.4969 M301.0503,1405.4969 L327.0503,1405.4969 M314.0503,1424.4969 L301.0503,1439.4969 M314.0503,1424.4969 L327.0503,1439.4969" style="stroke:#181818;stroke-width:0.5;" fill="none"/><text x="295.4736" y="1453.992" fill="#000000" font-size="14" lengthAdjust="spacing" textLength="37.1533" font-family="sans-serif">SUAP</text><text x="277.29" y="1377.6951" fill="#000000" font-size="14" lengthAdjust="spacing" textLength="73.5205" font-style="italic" font-family="sans-serif">«Sistema»</text></g><!--link Admin to UC01--><g class="link" data-entity-1="ent0001" data-entity-2="ent0007" id="lnk24" data-source-line="30" data-link-type="dependency"><path d="M103.83,566.63 C119.34,583.06 135.37,603.4 144.9,625 C151.04,638.92 142.88,681.55 152.9,693 C168.68,711.04 186.3665,720.3903 209.5565,726.5303" style="stroke:#181818;stroke-width:1;" fill="none" id="Admin-to-UC01"/><polygon points="214.39,727.81,206.7136,721.6397,209.5565,726.5303,204.666,729.3732,214.39,727.81" fill="#181818" style="stroke:#181818;stroke-width:1;stroke-linejoin:miter;stroke-miterlimit:10;"/></g><!--link Mod to UC01--><g class="link" data-entity-1="ent0002" data-entity-2="ent0007" id="lnk25" data-source-line="31" data-link-type="dependency"><path d="M81.1,776.39 C95.29,753.66 116.62,726.9 143.9,714 C180.66,696.62 221.9344,702.2649 256.7044,712.5249" style="stroke:#181818;stroke-width:1;" fill="none" id="Mod-to-UC01"/><polygon points="261.5,713.94,254,707.5564,256.7044,712.5249,251.7359,715.2293,261.5,713.94" fill="#181818" style="stroke:#181818;stroke-width:1;stroke-linejoin:miter;stroke-miterlimit:10;"/></g><!--link Cap to UC01--><g class="link" data-entity-1="ent0003" data-entity-2="ent0007" id="lnk26" data-source-line="32" data-link-type="dependency"><path d="M67.72,1125.5 C84.44,1032.28 128.11,800.26 152.9,775 C169.79,757.8 188.003,748.7362 211.343,742.6262" style="stroke:#181818;stroke-width:1;" fill="none" id="Cap-to-UC01"/><polygon points="216.18,741.36,206.4604,739.7696,211.343,742.6262,208.4864,747.5088,216.18,741.36" fill="#181818" style="stroke:#181818;stroke-width:1;stroke-linejoin:miter;stroke-miterlimit:10;"/></g><!--link Admin to UC02--><g class="link" data-entity-1="ent0001" data-entity-2="ent0008" id="lnk27" data-source-line="34" data-link-type="dependency"><path d="M71.16,566.57 C82.94,612.22 102.16,690.67 113.9,759 C126.7,833.52 102.85,1040.33 152.9,1097 C169.66,1115.98 189.1061,1125.3839 213.7361,1131.0239" style="stroke:#181818;stroke-width:1;" fill="none" id="Admin-to-UC02"/><polygon points="218.61,1132.14,210.7299,1126.232,213.7361,1131.0239,208.9442,1134.0302,218.61,1132.14" fill="#181818" style="stroke:#181818;stroke-width:1;stroke-linejoin:miter;stroke-miterlimit:10;"/></g><!--link Mod to UC02--><g class="link" data-entity-1="ent0002" data-entity-2="ent0008" id="lnk28" data-source-line="35" data-link-type="dependency"><path d="M62.15,853.6 C66.21,914.46 83.2,1032.43 152.9,1097 C171.48,1114.21 191.4783,1123.0647 216.0683,1128.7447" style="stroke:#181818;stroke-width:1;" fill="none" id="Mod-to-UC02"/><polygon points="220.94,1129.87,213.0711,1123.9471,216.0683,1128.7447,211.2707,1131.7418,220.94,1129.87" fill="#181818" style="stroke:#181818;stroke-width:1;stroke-linejoin:miter;stroke-miterlimit:10;"/></g><!--link Cap to UC02--><g class="link" data-entity-1="ent0003" data-entity-2="ent0008" id="lnk29" data-source-line="36" data-link-type="dependency"><path d="M66.67,1202.33 C77.07,1262.1 102.03,1366.66 144.9,1326 C157.09,1314.44 142.17,1187.93 152.9,1175 C169.16,1155.4 188.5928,1145.8113 213.3928,1140.2113" style="stroke:#181818;stroke-width:1;" fill="none" id="Cap-to-UC02"/><polygon points="218.27,1139.11,208.61,1137.1906,213.3928,1140.2113,210.3721,1144.9941,218.27,1139.11" fill="#181818" style="stroke:#181818;stroke-width:1;stroke-linejoin:miter;stroke-miterlimit:10;"/></g><!--link Admin to UC03--><g class="link" data-entity-1="ent0001" data-entity-2="ent0009" id="lnk30" data-source-line="38" data-link-type="dependency"><path d="M71.47,566.52 C83.53,612.12 103.04,690.53 113.9,759 C128.45,850.7 91.79,1105.1 152.9,1175 C168.93,1193.34 187.1209,1202.691 210.7509,1208.631" style="stroke:#181818;stroke-width:1;" fill="none" id="Admin-to-UC03"/><polygon points="215.6,1209.85,207.8467,1203.7766,210.7509,1208.631,205.8964,1211.5352,215.6,1209.85" fill="#181818" style="stroke:#181818;stroke-width:1;stroke-linejoin:miter;stroke-miterlimit:10;"/></g><!--link Mod to UC03--><g class="link" data-entity-1="ent0002" data-entity-2="ent0009" id="lnk31" data-source-line="39" data-link-type="dependency"><path d="M65.78,853.55 C77,936.83 107.34,1129.68 152.9,1175 C170.17,1192.18 188.7809,1201.141 212.4109,1207.081" style="stroke:#181818;stroke-width:1;" fill="none" id="Mod-to-UC03"/><polygon points="217.26,1208.3,209.5067,1202.2266,212.4109,1207.081,207.5564,1209.9852,217.26,1208.3" fill="#181818" style="stroke:#181818;stroke-width:1;stroke-linejoin:miter;stroke-miterlimit:10;"/></g><!--link Cap to UC03--><g class="link" data-entity-1="ent0003" data-entity-2="ent0009" id="lnk32" data-source-line="40" data-link-type="dependency"><path d="M66.41,1202.41 C77.32,1273.08 104.23,1419.23 143.9,1449 C161.16,1461.95 139.27,1271.73 152.9,1255 C168.28,1236.12 186.2609,1226.579 209.8909,1220.639" style="stroke:#181818;stroke-width:1;" fill="none" id="Cap-to-UC03"/><polygon points="214.74,1219.42,205.0364,1217.7348,209.8909,1220.639,206.9867,1225.4934,214.74,1219.42" fill="#181818" style="stroke:#181818;stroke-width:1;stroke-linejoin:miter;stroke-miterlimit:10;"/></g><!--link Admin to UC04--><g class="link" data-entity-1="ent0001" data-entity-2="ent0010" id="lnk33" data-source-line="42" data-link-type="dependency"><path d="M76.43,566.27 C93.9,609.94 122.74,683.64 144.9,748 C148.83,759.43 144.12,765.69 152.9,774 C171.62,791.74 192.0988,800.8223 217.1088,806.6123" style="stroke:#181818;stroke-width:1;" fill="none" id="Admin-to-UC04"/><polygon points="221.98,807.74,214.1141,801.8132,217.1088,806.6123,212.3097,809.6071,221.98,807.74" fill="#181818" style="stroke:#181818;stroke-width:1;stroke-linejoin:miter;stroke-miterlimit:10;"/></g><!--link Mod to UC04--><g class="link" data-entity-1="ent0002" data-entity-2="ent0010" id="lnk34" data-source-line="43" data-link-type="dependency"><path d="M98.15,814.85 C129.65,814.73 171.22,814.5592 212.95,814.3992" style="stroke:#181818;stroke-width:1;" fill="none" id="Mod-to-UC04"/><polygon points="217.95,814.38,208.9347,810.4145,212.95,814.3992,208.9654,818.4145,217.95,814.38" fill="#181818" style="stroke:#181818;stroke-width:1;stroke-linejoin:miter;stroke-miterlimit:10;"/></g><!--link Cap to UC04--><g class="link" data-entity-1="ent0003" data-entity-2="ent0010" id="lnk35" data-source-line="44" data-link-type="dependency"><path d="M60.73,1125.54 C62.56,1059.87 76.15,926.11 152.9,853 C171.44,835.34 191.7238,826.3658 216.5938,820.7258" style="stroke:#181818;stroke-width:1;" fill="none" id="Cap-to-UC04"/><polygon points="221.47,819.62,211.8082,817.7095,216.5938,820.7258,213.5775,825.5114,221.47,819.62" fill="#181818" style="stroke:#181818;stroke-width:1;stroke-linejoin:miter;stroke-miterlimit:10;"/></g><!--link Admin to UC05--><g class="link" data-entity-1="ent0001" data-entity-2="ent0011" id="lnk36" data-source-line="46" data-link-type="dependency"><path d="M69.84,566.4 C80.43,612.23 98.61,691.17 113.9,759 C131.52,837.16 96.84,877.76 152.9,935 C171.42,953.91 192.5802,963.2059 218.2902,968.6959" style="stroke:#181818;stroke-width:1;" fill="none" id="Admin-to-UC05"/><polygon points="223.18,969.74,215.2137,963.9487,218.2902,968.6959,213.5431,971.7724,223.18,969.74" fill="#181818" style="stroke:#181818;stroke-width:1;stroke-linejoin:miter;stroke-miterlimit:10;"/></g><!--link Mod to UC05--><g class="link" data-entity-1="ent0002" data-entity-2="ent0011" id="lnk37" data-source-line="47" data-link-type="dependency"><path d="M81.01,853.37 C96.98,880.19 121.79,914.71 152.9,935 C175.79,949.93 199.0036,958.09 225.2336,963.78" style="stroke:#181818;stroke-width:1;" fill="none" id="Mod-to-UC05"/><polygon points="230.12,964.84,222.1726,959.0229,225.2336,963.78,220.4766,966.8411,230.12,964.84" fill="#181818" style="stroke:#181818;stroke-width:1;stroke-linejoin:miter;stroke-miterlimit:10;"/></g><!--link Cap to UC05--><g class="link" data-entity-1="ent0003" data-entity-2="ent0011" id="lnk38" data-source-line="48" data-link-type="dependency"><path d="M74.52,1125.48 C88.72,1090.83 114.37,1041.17 152.9,1013 C174.61,997.12 197.0842,988.7123 223.0242,983.0723" style="stroke:#181818;stroke-width:1;" fill="none" id="Cap-to-UC05"/><polygon points="227.91,982.01,218.2656,980.0135,223.0242,983.0723,219.9653,987.8308,227.91,982.01" fill="#181818" style="stroke:#181818;stroke-width:1;stroke-linejoin:miter;stroke-miterlimit:10;"/></g><!--link Admin to UC06--><g class="link" data-entity-1="ent0001" data-entity-2="ent0012" id="lnk39" data-source-line="50" data-link-type="dependency"><path d="M63.83,489.65 C70.13,433.98 90.07,331.29 152.9,275 C171.97,257.91 192.4144,249.1085 217.2644,243.4585" style="stroke:#181818;stroke-width:1;" fill="none" id="Admin-to-UC06"/><polygon points="222.14,242.35,212.4772,240.4449,217.2644,243.4585,214.2508,248.2458,222.14,242.35" fill="#181818" style="stroke:#181818;stroke-width:1;stroke-linejoin:miter;stroke-miterlimit:10;"/></g><!--link Admin to UC07--><g class="link" data-entity-1="ent0001" data-entity-2="ent0013" id="lnk40" data-source-line="51" data-link-type="dependency"><path d="M70.71,566.65 C82.05,612.38 100.86,690.91 113.9,759 C124.59,814.87 114.93,969.64 152.9,1012 C167.98,1028.83 184.0823,1037.9384 205.8023,1044.4784" style="stroke:#181818;stroke-width:1;" fill="none" id="Admin-to-UC07"/><polygon points="210.59,1045.92,203.1255,1039.495,205.8023,1044.4784,200.8189,1047.1553,210.59,1045.92" fill="#181818" style="stroke:#181818;stroke-width:1;stroke-linejoin:miter;stroke-miterlimit:10;"/></g><!--link Mod to UC07--><g class="link" data-entity-1="ent0002" data-entity-2="ent0013" id="lnk41" data-source-line="52" data-link-type="dependency"><path d="M68.66,853.59 C79.62,898.28 104.04,971 152.9,1012 C170.76,1026.99 188.5407,1035.4323 211.0807,1041.8423" style="stroke:#181818;stroke-width:1;" fill="none" id="Mod-to-UC07"/><polygon points="215.89,1043.21,208.3274,1036.9007,211.0807,1041.8423,206.1391,1044.5956,215.89,1043.21" fill="#181818" style="stroke:#181818;stroke-width:1;stroke-linejoin:miter;stroke-miterlimit:10;"/></g><!--link Cap to UC07--><g class="link" data-entity-1="ent0003" data-entity-2="ent0013" id="lnk42" data-source-line="53" data-link-type="dependency"><path d="M87.26,1190.51 C105.18,1205.39 128.52,1218.19 144.9,1203 C162.22,1186.94 137.77,1115.15 152.9,1097 C167.07,1080 182.4178,1070.8897 203.6478,1064.4097" style="stroke:#181818;stroke-width:1;" fill="none" id="Cap-to-UC07"/><polygon points="208.43,1062.95,198.6543,1061.7516,203.6478,1064.4097,200.9898,1069.4031,208.43,1062.95" fill="#181818" style="stroke:#181818;stroke-width:1;stroke-linejoin:miter;stroke-miterlimit:10;"/></g><!--link Admin to UC08--><g class="link" data-entity-1="ent0001" data-entity-2="ent0014" id="lnk43" data-source-line="55" data-link-type="dependency"><path d="M84.31,489.49 C101.47,465.92 125.14,443.37 144.9,461 C156.58,471.43 142.68,519.14 152.9,531 C166.99,547.36 181.8087,556.2936 202.4587,562.9136" style="stroke:#181818;stroke-width:1;" fill="none" id="Admin-to-UC08"/><polygon points="207.22,564.44,199.8707,557.8834,202.4587,562.9136,197.4285,565.5016,207.22,564.44" fill="#181818" style="stroke:#181818;stroke-width:1;stroke-linejoin:miter;stroke-miterlimit:10;"/></g><!--link Mod to UC08--><g class="link" data-entity-1="ent0002" data-entity-2="ent0014" id="lnk44" data-source-line="56" data-link-type="dependency"><path d="M68.51,776.62 C79.36,731.74 103.73,658.35 152.9,617 C170.09,602.55 186.8748,594.3265 208.5748,587.9165" style="stroke:#181818;stroke-width:1;" fill="none" id="Mod-to-UC08"/><polygon points="213.37,586.5,203.6055,585.2135,208.5748,587.9165,205.8719,592.8858,213.37,586.5" fill="#181818" style="stroke:#181818;stroke-width:1;stroke-linejoin:miter;stroke-miterlimit:10;"/></g><!--link Admin to UC09--><g class="link" data-entity-1="ent0001" data-entity-2="ent0015" id="lnk45" data-source-line="58" data-link-type="dependency"><path d="M109.6,526.45 C122.73,528.51 135.81,533.26 144.9,543 C167.47,567.19 131.02,592.19 152.9,617 C170.67,637.15 192.0754,646.6477 218.2554,651.8377" style="stroke:#181818;stroke-width:1;" fill="none" id="Admin-to-UC09"/><polygon points="223.16,652.81,215.1096,647.1362,218.2554,651.8377,213.554,654.9835,223.16,652.81" fill="#181818" style="stroke:#181818;stroke-width:1;stroke-linejoin:miter;stroke-miterlimit:10;"/></g><!--link Mod to UC09--><g class="link" data-entity-1="ent0002" data-entity-2="ent0015" id="lnk46" data-source-line="59" data-link-type="dependency"><path d="M76.2,776.4 C89.66,747.5 112.11,709.4 143.9,688 C167.48,672.13 191.9174,664.3079 219.5374,659.7279" style="stroke:#181818;stroke-width:1;" fill="none" id="Mod-to-UC09"/><polygon points="224.47,658.91,214.9369,656.4362,219.5374,659.7279,216.2456,664.3284,224.47,658.91" fill="#181818" style="stroke:#181818;stroke-width:1;stroke-linejoin:miter;stroke-miterlimit:10;"/></g><!--link Admin to UC10--><g class="link" data-entity-1="ent0001" data-entity-2="ent0016" id="lnk47" data-source-line="61" data-link-type="dependency"><path d="M70.38,489.63 C81.43,453.91 103.57,402.71 143.9,379 C157.8,370.83 142.29,438.86 152.9,451 C169.31,469.77 188.1999,479.2356 212.4099,485.0856" style="stroke:#181818;stroke-width:1;" fill="none" id="Admin-to-UC10"/><polygon points="217.27,486.26,209.4613,480.258,212.4099,485.0856,207.5823,488.0342,217.27,486.26" fill="#181818" style="stroke:#181818;stroke-width:1;stroke-linejoin:miter;stroke-miterlimit:10;"/></g><!--link Mod to UC10--><g class="link" data-entity-1="ent0002" data-entity-2="ent0016" id="lnk48" data-source-line="62" data-link-type="dependency"><path d="M68.61,776.45 C83.17,706.99 116.63,564.87 152.9,531 C171.23,513.89 190.8695,504.9727 215.1995,499.1027" style="stroke:#181818;stroke-width:1;" fill="none" id="Mod-to-UC10"/><polygon points="220.06,497.93,210.3729,496.1524,215.1995,499.1027,212.2492,503.9293,220.06,497.93" fill="#181818" style="stroke:#181818;stroke-width:1;stroke-linejoin:miter;stroke-miterlimit:10;"/></g><!--link Admin to UC11--><g class="link" data-entity-1="ent0001" data-entity-2="ent0017" id="lnk49" data-source-line="64" data-link-type="dependency"><path d="M71.67,566.48 C83.93,612.06 103.61,690.44 113.9,759 C122.1,813.67 117.3,1212.7 152.9,1255 C165.1,1269.5 176.8892,1277.7543 194.5992,1284.7443" style="stroke:#181818;stroke-width:1;" fill="none" id="Admin-to-UC11"/><polygon points="199.25,1286.58,192.347,1279.5551,194.5992,1284.7443,189.41,1286.9965,199.25,1286.58" fill="#181818" style="stroke:#181818;stroke-width:1;stroke-linejoin:miter;stroke-miterlimit:10;"/></g><!--link Mod to UC11--><g class="link" data-entity-1="ent0002" data-entity-2="ent0017" id="lnk50" data-source-line="65" data-link-type="dependency"><path d="M67.84,853.29 C86.77,957.6 139.06,1240.1 152.9,1255 C165.99,1269.1 178.4167,1277.1924 196.5567,1284.0924" style="stroke:#181818;stroke-width:1;" fill="none" id="Mod-to-UC11"/><polygon points="201.23,1285.87,194.2401,1278.9316,196.5567,1284.0924,191.3959,1286.409,201.23,1285.87" fill="#181818" style="stroke:#181818;stroke-width:1;stroke-linejoin:miter;stroke-miterlimit:10;"/></g><!--link Cap to UC11--><g class="link" data-entity-1="ent0003" data-entity-2="ent0017" id="lnk51" data-source-line="66" data-link-type="dependency"><path d="M63.74,1202.51 C70.84,1288.15 92.74,1490.12 143.9,1531 C159.89,1543.78 140.23,1363.08 152.9,1347 C164.53,1332.23 175.9533,1323.8711 193.4233,1316.8211" style="stroke:#181818;stroke-width:1;" fill="none" id="Cap-to-UC11"/><polygon points="198.06,1314.95,188.2171,1314.6087,193.4233,1316.8211,191.2109,1322.0274,198.06,1314.95" fill="#181818" style="stroke:#181818;stroke-width:1;stroke-linejoin:miter;stroke-miterlimit:10;"/></g><!--link Pub to UC11--><g class="link" data-entity-1="ent0004" data-entity-2="ent0017" id="lnk52" data-source-line="67" data-link-type="dependency"><path d="M114.37,1569.83 C126.43,1561.78 137.76,1551.58 144.9,1539 C155.44,1520.43 139.7,1363.79 152.9,1347 C164.52,1332.22 175.9333,1323.8511 193.4033,1316.8011" style="stroke:#181818;stroke-width:1;" fill="none" id="Pub-to-UC11"/><polygon points="198.04,1314.93,188.1971,1314.5887,193.4033,1316.8011,191.1909,1322.0074,198.04,1314.93" fill="#181818" style="stroke:#181818;stroke-width:1;stroke-linejoin:miter;stroke-miterlimit:10;"/></g><!--link Admin to UC12--><g class="link" data-entity-1="ent0001" data-entity-2="ent0018" id="lnk53" data-source-line="69" data-link-type="dependency"><path d="M64.6,489.39 C74.01,397.81 102.01,171.02 152.9,117 C166.29,102.79 179.0656,94.6184 197.5256,87.7284" style="stroke:#181818;stroke-width:1;" fill="none" id="Admin-to-UC12"/><polygon points="202.21,85.98,192.3795,85.3796,197.5256,87.7284,195.1769,92.8746,202.21,85.98" fill="#181818" style="stroke:#181818;stroke-width:1;stroke-linejoin:miter;stroke-miterlimit:10;"/></g><!--link Admin to UC13--><g class="link" data-entity-1="ent0001" data-entity-2="ent0019" id="lnk54" data-source-line="71" data-link-type="dependency"><path d="M64.84,489.5 C71.83,442.57 91.13,364.84 143.9,327 C166.26,310.97 189.8527,305.343 217.1427,304.453" style="stroke:#181818;stroke-width:1;" fill="none" id="Admin-to-UC13"/><polygon points="222.14,304.29,213.0144,300.5855,217.1427,304.453,213.2752,308.5812,222.14,304.29" fill="#181818" style="stroke:#181818;stroke-width:1;stroke-linejoin:miter;stroke-miterlimit:10;"/></g><!--link Mod to UC13--><g class="link" data-entity-1="ent0002" data-entity-2="ent0019" id="lnk55" data-source-line="72" data-link-type="dependency"><path d="M70.41,776.72 C81.54,731.01 100.24,652.18 113.9,584 C134.01,483.63 83.48,432.24 152.9,357 C168.86,339.7 186.1947,330.5902 208.9547,324.4102" style="stroke:#181818;stroke-width:1;" fill="none" id="Mod-to-UC13"/><polygon points="213.78,323.1,204.0463,321.5981,208.9547,324.4102,206.1427,329.3186,213.78,323.1" fill="#181818" style="stroke:#181818;stroke-width:1;stroke-linejoin:miter;stroke-miterlimit:10;"/></g><!--link Admin to UC14--><g class="link" data-entity-1="ent0001" data-entity-2="ent0020" id="lnk56" data-source-line="74" data-link-type="dependency"><path d="M67.01,489.39 C75.86,447.57 96.73,382.84 143.9,353 C144.27,352.76 144.47,352.9 144.9,353 C148.77,353.91 149.2,355.55 152.9,357 C175.69,365.96 196.0831,372.7093 219.6131,379.6293" style="stroke:#181818;stroke-width:1;" fill="none" id="Admin-to-UC14"/><polygon points="224.41,381.04,216.9042,374.6632,219.6131,379.6293,214.6471,382.3382,224.41,381.04" fill="#181818" style="stroke:#181818;stroke-width:1;stroke-linejoin:miter;stroke-miterlimit:10;"/></g><!--link Mod to UC14--><g class="link" data-entity-1="ent0002" data-entity-2="ent0020" id="lnk57" data-source-line="75" data-link-type="dependency"><path d="M69.59,776.53 C90.21,685.37 141.41,462.93 152.9,451 C165.86,437.54 177.8078,429.7023 195.3778,422.7823" style="stroke:#181818;stroke-width:1;" fill="none" id="Mod-to-UC14"/><polygon points="200.03,420.95,190.1903,420.5264,195.3778,422.7823,193.1219,427.9698,200.03,420.95" fill="#181818" style="stroke:#181818;stroke-width:1;stroke-linejoin:miter;stroke-miterlimit:10;"/></g><!--link Admin to UC15--><g class="link" data-entity-1="ent0001" data-entity-2="ent0021" id="lnk58" data-source-line="77" data-link-type="dependency"><path d="M66.69,489.6 C79.13,411.47 110.87,237.94 152.9,197 C170.76,179.6 190.1109,170.5886 214.3109,164.7186" style="stroke:#181818;stroke-width:1;" fill="none" id="Admin-to-UC15"/><polygon points="219.17,163.54,209.4807,161.7743,214.3109,164.7186,211.3665,169.5488,219.17,163.54" fill="#181818" style="stroke:#181818;stroke-width:1;stroke-linejoin:miter;stroke-miterlimit:10;"/></g><!--link Admin to UC16--><g class="link" data-entity-1="ent0001" data-entity-2="ent0022" id="lnk59" data-source-line="79" data-link-type="dependency"><path d="M69.56,566.44 C88.15,648.01 132.04,832.66 152.9,853 C169.34,869.03 186.3236,877.7076 208.5336,883.8976" style="stroke:#181818;stroke-width:1;" fill="none" id="Admin-to-UC16"/><polygon points="213.35,885.24,205.7543,878.9706,208.5336,883.8976,203.6065,886.6769,213.35,885.24" fill="#181818" style="stroke:#181818;stroke-width:1;stroke-linejoin:miter;stroke-miterlimit:10;"/></g><!--link Mod to UC16--><g class="link" data-entity-1="ent0002" data-entity-2="ent0022" id="lnk60" data-source-line="80" data-link-type="dependency"><path d="M98.08,831.75 C114.65,838.86 134.54,846.89 152.9,853 C180.13,862.06 205.6771,869.0962 232.6071,875.7762" style="stroke:#181818;stroke-width:1;" fill="none" id="Mod-to-UC16"/><polygon points="237.46,876.98,229.6877,870.9309,232.6071,875.7762,227.7617,878.6956,237.46,876.98" fill="#181818" style="stroke:#181818;stroke-width:1;stroke-linejoin:miter;stroke-miterlimit:10;"/></g><!--link Cap to UC16--><g class="link" data-entity-1="ent0003" data-entity-2="ent0022" id="lnk61" data-source-line="81" data-link-type="dependency"><path d="M65.76,1125.66 C74.2,1074.79 96.52,985.64 152.9,936 C170.59,920.42 188.559,911.8458 211.359,905.5758" style="stroke:#181818;stroke-width:1;" fill="none" id="Cap-to-UC16"/><polygon points="216.18,904.25,206.4415,902.7796,211.359,905.5758,208.5628,910.4932,216.18,904.25" fill="#181818" style="stroke:#181818;stroke-width:1;stroke-linejoin:miter;stroke-miterlimit:10;"/></g><!--link UC04 to UC17--><g class="link" data-entity-1="ent0010" data-entity-2="ent0023" id="lnk62" data-source-line="83" data-link-type="dependency"><path d="M391.55,826.88 C412.09,832.67 433.49,841.01 451.2,853 C569.86,933.3 655.2108,1082.6648 687.8808,1146.1048" style="stroke:#181818;stroke-width:1;stroke-dasharray:7,7;" fill="none" id="UC04-to-UC17"/><polygon points="690.17,1150.55,689.6057,1140.7173,687.8808,1146.1048,682.4934,1144.38,690.17,1150.55" fill="#181818" style="stroke:#181818;stroke-width:1;stroke-linejoin:miter;stroke-miterlimit:10;"/><text x="482.2" y="876.0669" fill="#000000" font-size="13" lengthAdjust="spacing" textLength="63.0068" font-family="sans-serif">«include»</text></g><!--link Suap to UC17--><g class="link" data-entity-1="ent0005" data-entity-2="ent0023" id="lnk63" data-source-line="84" data-link-type="dependency"><path d="M352.15,1394.96 C379.93,1382.55 418.59,1364.43 451.2,1346 C530.45,1301.21 614.0366,1243.5895 662.5466,1209.0595" style="stroke:#181818;stroke-width:1;" fill="none" id="Suap-to-UC17"/><polygon points="666.62,1206.16,656.9682,1208.1204,662.5466,1209.0595,661.6074,1214.6379,666.62,1206.16" fill="#181818" style="stroke:#181818;stroke-width:1;stroke-linejoin:miter;stroke-miterlimit:10;"/></g><?plantuml-src NPHDQnin48Rl-ok6t1qYVsrSGi0u8RJG4k8wTtbtiX7PbOoa3VsWFwRqK5h8gRTSzuzrTXtPqXn7yumqUj-HQdpmu0rOLJrwA9N5mYkZC_Uaz4vQsS1E5a-omhN_MYFqQQch6hDC5jvOE5cMZTBAUIjBOqz0EXXMGlgZAV6OeYWaLdAdVFVB3EiKXFMDQxkVLXcuxLwtjIhsm6sx3S1wixmTrjQjtC75nPeEnqPUNcRPeJkYRgusC8At99G8DsXH5qesgEc-L-XsndhrR62ZrJDQHztqvvx0zmoWTLX8H_jiLcU2zbcsdifK8Is41eSU-ZJ3nuI7iooiKJ_AW8uPEadGfQ-xF_qP0PymVCfnz0TsojXPmdvM3GPoniXvGgwahGvNcpCq9_HUkLRMwXknLz8zResqPU1pnf-dMvjcXrvrluFhFS4g5bJnNhl28bcIjBr8IN56v1rMm-IHpDrhqzP13N76uDx2bT6khNslXjnYBG7XJceQyofKCIT5wkHrkMyTIkFWWwcC2tNCLj7RkgnGbrH5b_6obl6b1VDLlFbAz1trvRj__VWZN7_f9pGjPJQBtkRhHdb5yYADymEDJtcWcTLYFcXMu9Qq_MJsTB8zCrmCXfFR_KtkknTTjBM19HtH_Mt2q-onx4UM3SyUHgFB_QEWftuCw7qVWvGSn-Gu9iUCdCJa92OdZ9p6v3GcfuoSnUGi9cUCdATX7XVcSM7E2izZyfmb5t5oaIPfYez92j9ahB285QQ0VijZa9OnKKKigc0wYbX7mQGJJ22QdGYUnmtDispulKvFXp27T_HjArtKROdqRG__-1kQ_mS0?></g></svg>